# xmcd
#
# Track frame offsets:
# 150
# 16967
# 39640
# 59612
# 79107
# 99657
# 117900
# 137685
# 158700
# 176867
# 191820
#
# Disc length: 2823 seconds
#
#
# Revision: 0
# Processed by: cddbd v1.5.1PL2 Copyright (c) Steve Scherf et al.
# Submitted via: FreeRIP 2.944 
#
DISCID=960b050b
DTITLE=Jeffrey Daniel - Skinny Boy
DYEAR=1990
DGENRE=Soul
TTITLE0=Shes The Girl
TTITLE1=Skinny Boy
TTITLE2=Thats My Heart
TTITLE3=Dr. Strange Love
TTITLE4=Here We Are
TTITLE5=Girls, Boys
TTITLE6=Lessons
TTITLE7=Blue Is The Night
TTITLE8=My Life
TTITLE9=I Believe
TTITLE10=I'll Be Around
EXTD=
EXTT0=
EXTT1=
EXTT2=
EXTT3=
EXTT4=
EXTT5=
EXTT6=
EXTT7=
EXTT8=
EXTT9=
EXTT10=
PLAYORDER=
